<?xml version="1.0" encoding="iso-8859-1"?>
<!-- Uploaded to: SVG Repo, www.svgrepo.com, Generator: SVG Repo Mixer Tools -->
<svg fill="#000000" height="800px" width="800px" version="1.1" id="Layer_1" xmlns="http://www.w3.org/2000/svg" xmlns:xlink="http://www.w3.org/1999/xlink" 
	 viewBox="0 0 496 496" xml:space="preserve">
<g>
	<g>
		<g>
			<path d="M480,152v-40c0-52.936-43.064-96-96-96V0H0v128h16v40H0v128h16v40H0v128h16v32h112v-32h128v32h112v-32h16v-96h112V152
				H480z M464,112v40h-24v-40c0-30.872-25.12-56-56-56s-56,25.128-56,56v40h-24v-40c0-44.112,35.888-80,80-80S464,67.888,464,112z
				 M424,112v40h-80v-40c0-22.056,17.944-40,40-40C406.056,72,424,89.944,424,112z M368,16v1.448c-45.328,7.648-80,47.08-80,94.552
				V48h-16v64h-37.808C247.528,100.264,256,83.12,256,64s-8.472-36.264-21.808-48H368z M272,296v40H32v-40H272z M144,232
				c0-26.472,21.528-48,48-48s48,21.528,48,48s-21.528,48-48,48S144,258.472,144,232z M234.192,280
				C247.528,268.264,256,251.12,256,232s-8.472-36.264-21.808-48H272v96H234.192z M32,168v-40h256v24h-16v16H32z M192,16
				c26.472,0,48,21.528,48,48s-21.528,48-48,48s-48-21.528-48-48S165.528,16,192,16z M16,16h133.808
				C136.472,27.736,128,44.88,128,64s8.472,36.264,21.808,48H112V48H96v64H80V48H64v64H48V48H32v64H16V16z M16,184h133.808
				C136.472,195.736,128,212.88,128,232s8.472,36.264,21.808,48H112v-64H96v64H80v-64H64v64H48v-64H32v64H16V184z M112,480H32v-16
				h80V480z M112,448v-64H96v64H80v-64H64v64H48v-64H32v64H16v-96h133.808C136.472,363.736,128,380.88,128,400
				s8.472,36.264,21.808,48H112z M192,448c-26.472,0-48-21.528-48-48s21.528-48,48-48s48,21.528,48,48S218.472,448,192,448z
				 M352,480h-80v-16h80V480z M368,448h-16v-64h-16v64h-16v-64h-16v64h-16v-64h-16v64h-37.808C247.528,436.264,256,419.12,256,400
				s-8.472-36.264-21.808-48H272v16h96V448z M480,352H288V168h192V352z"/>
			<path d="M376,263.192V320h16v-56.808c18.232-3.72,32-19.872,32-39.192c0-22.056-17.944-40-40-40c-22.056,0-40,17.944-40,40
				C344,243.312,360,259.472,376,263.192z M384,200c13.232,0,24,10.768,24,24s-10.768,24-24,24s-24-10.768-24-24
				S370.768,200,384,200z"/>
		</g>
	</g>
</g>
</svg>