<?xml version="1.0" encoding="UTF-8"?>
<!-- Uploaded to: SVG Repo, www.svgrepo.com, Generator: SVG Repo Mixer Tools -->
<svg width="800px" height="800px" viewBox="-2.5 0 32 32" version="1.1" xmlns="http://www.w3.org/2000/svg" xmlns:xlink="http://www.w3.org/1999/xlink">
    
    <title>document</title>
    <desc>Created with Sketch.</desc>
    <g id="icons" stroke="none" stroke-width="1" fill="none" fill-rule="evenodd">
        <g id="ui-gambling-website-lined-icnos-casinoshunter" transform="translate(-606.000000, -284.000000)" fill="#252528" fill-rule="nonzero">
            <g id="square-filled" transform="translate(50.000000, 120.000000)">
                <path d="M577.017693,164 C577.504179,164 577.973985,164.177317 578.339153,164.498753 L582.32146,168.004143 C582.752813,168.383838 583,168.930731 583,169.505391 L583,193 C583,194.656854 581.656854,196 580,196 L559,196 C557.343146,196 556,194.656854 556,193 L556,167 C556,165.343146 557.343146,164 559,164 L577.017693,164 Z M576,166 L559,166 C558.447715,166 558,166.447715 558,167 L558,193 C558,193.552285 558.447715,194 559,194 L580,194 C580.552285,194 581,193.552285 581,193 L581,172 L578.659002,172 C577.198488,172 576.085129,170.710688 576.004662,169.160652 L576,168.980703 L576,166 Z M575,183 C575.552285,183 576,183.447715 576,184 C576,184.552285 575.552285,185 575,185 L564,185 C563.447715,185 563,184.552285 563,184 C563,183.447715 563.447715,183 564,183 L575,183 Z M575,179 C575.552285,179 576,179.447715 576,180 C576,180.552285 575.552285,181 575,181 L564,181 C563.447715,181 563,180.552285 563,180 C563,179.447715 563.447715,179 564,179 L575,179 Z M575,175 C575.552285,175 576,175.447715 576,176 C576,176.552285 575.552285,177 575,177 L564,177 C563.447715,177 563,176.552285 563,176 C563,175.447715 563.447715,175 564,175 L575,175 Z M578,166.865 L578,168.980703 C578,169.582258 578.343206,170 578.659002,170 L578.659002,170 L581,170 L581,169.505391 L578,166.865 Z" id="document">
</path>
            </g>
        </g>
    </g>
</svg>