<svg xmlns="http://www.w3.org/2000/svg"  viewBox="0 0 50 50" width="100px" height="100px"><path d="M 3 6 C 1.355469 6 0 7.355469 0 9 L 0 15 C 0 16.644531 1.355469 18 3 18 L 11 18 C 12.644531 18 14 16.644531 14 15 L 14 13 L 20 13 L 20 15 C 20 16.644531 21.355469 18 23 18 L 31 18 C 32.644531 18 34 16.644531 34 15 L 34 13 L 39 13 C 40.65625 13 42 14.34375 42 16 L 42 19 L 39 19 C 37.355469 19 36 20.355469 36 22 L 36 28 C 36 29.644531 37.355469 31 39 31 L 42 31 L 42 34 C 42 35.65625 40.65625 37 39 37 L 34 37 L 34 35 C 34 33.355469 32.644531 32 31 32 L 23 32 C 21.355469 32 20 33.355469 20 35 L 20 37 L 14 37 L 14 35 C 14 33.355469 12.644531 32 11 32 L 3 32 C 1.355469 32 0 33.355469 0 35 L 0 41 C 0 42.644531 1.355469 44 3 44 L 11 44 C 12.644531 44 14 42.644531 14 41 L 14 39 L 20 39 L 20 41 C 20 42.644531 21.355469 44 23 44 L 31 44 C 32.644531 44 34 42.644531 34 41 L 34 39 L 39 39 C 41.746094 39 44 36.746094 44 34 L 44 31 L 47 31 C 48.644531 31 50 29.644531 50 28 L 50 22 C 50 20.355469 48.644531 19 47 19 L 44 19 L 44 16 C 44 13.253906 41.746094 11 39 11 L 34 11 L 34 9 C 34 7.355469 32.644531 6 31 6 L 23 6 C 21.355469 6 20 7.355469 20 9 L 20 11 L 14 11 L 14 9 C 14 7.355469 12.644531 6 11 6 Z M 3 8 L 11 8 C 11.554688 8 12 8.445313 12 9 L 12 15 C 12 15.554688 11.554688 16 11 16 L 3 16 C 2.445313 16 2 15.554688 2 15 L 2 9 C 2 8.445313 2.445313 8 3 8 Z M 23 8 L 31 8 C 31.554688 8 32 8.445313 32 9 L 32 15 C 32 15.554688 31.554688 16 31 16 L 23 16 C 22.445313 16 22 15.554688 22 15 L 22 9 C 22 8.445313 22.445313 8 23 8 Z M 39 21 L 47 21 C 47.554688 21 48 21.445313 48 22 L 48 28 C 48 28.554688 47.554688 29 47 29 L 39 29 C 38.445313 29 38 28.554688 38 28 L 38 22 C 38 21.445313 38.445313 21 39 21 Z M 3 34 L 11 34 C 11.554688 34 12 34.445313 12 35 L 12 41 C 12 41.554688 11.554688 42 11 42 L 3 42 C 2.445313 42 2 41.554688 2 41 L 2 35 C 2 34.445313 2.445313 34 3 34 Z M 23 34 L 31 34 C 31.554688 34 32 34.445313 32 35 L 32 41 C 32 41.554688 31.554688 42 31 42 L 23 42 C 22.445313 42 22 41.554688 22 41 L 22 35 C 22 34.445313 22.445313 34 23 34 Z"/></svg>