<?xml version="1.0" encoding="iso-8859-1"?>
<!-- Uploaded to: SVG Repo, www.svgrepo.com, Generator: SVG Repo Mixer Tools -->
<svg fill="#000000" version="1.1" id="Layer_1" xmlns="http://www.w3.org/2000/svg" xmlns:xlink="http://www.w3.org/1999/xlink" 
	 viewBox="0 0 496 496" xml:space="preserve">
<g>
	<g>
		<g>
			<path d="M248,32C128.896,32,32,128.896,32,248s96.896,216,216,216s216-96.896,216-216S367.104,32,248,32z M256,57.296
				c17.16,15.768,47.856,48.456,68.072,95.4c-18.992,3.96-41.656,6.632-68.072,7.112V57.296z M240,57.32v102.488
				c-26.416-0.48-49.08-3.152-68.064-7.12C192.12,105.864,222.832,73.128,240,57.32z M224.936,49.376
				c-19.144,18.248-48.992,51.952-68.84,99.528c-32.616-8.792-52.544-20.688-62.448-27.944
				C125.744,82.032,172.264,55.456,224.936,49.376z M83.944,133.808c9.584,7.12,26.6,17.496,52.824,26.192H120
				c-22.056,0-40,17.944-40,40v40H48.2C49.76,200.632,62.752,164.168,83.944,133.808z M48.2,256H80v40c0,22.056,17.944,40,40,40
				h16.768c-26.224,8.696-43.24,19.072-52.824,26.192C62.752,331.832,49.76,295.368,48.2,256z M93.648,375.04
				c9.912-7.256,29.832-19.152,62.448-27.944c19.848,47.576,49.696,81.28,68.84,99.528
				C172.264,440.544,125.744,413.968,93.648,375.04z M240,438.704c-17.16-15.768-47.856-48.456-68.072-95.4
				c18.992-3.96,41.656-6.632,68.072-7.112V438.704z M120,320c-13.232,0-24-10.768-24-24v-96c0-13.232,10.768-24,24-24h256
				c13.232,0,24,10.768,24,24v96c0,13.232-10.768,24-24,24H120z M256,438.68V336.192c26.416,0.48,49.08,3.152,68.064,7.112
				C303.88,390.136,273.168,422.872,256,438.68z M271.064,446.624c19.144-18.248,48.992-51.952,68.84-99.528
				c32.616,8.792,52.544,20.688,62.448,27.944C370.256,413.968,323.736,440.544,271.064,446.624z M412.056,362.192
				c-9.584-7.12-26.6-17.496-52.824-26.192H376c22.056,0,40-17.944,40-40v-40h31.8C446.24,295.368,433.248,331.832,412.056,362.192z
				 M447.8,240H416v-40c0-22.056-17.944-40-40-40h-16.768c26.224-8.696,43.24-19.072,52.824-26.192
				C433.248,164.168,446.24,200.632,447.8,240z M339.904,148.904c-19.848-47.576-49.696-81.28-68.84-99.528
				c52.672,6.08,99.192,32.656,131.288,71.584C392.44,128.216,372.52,140.112,339.904,148.904z"/>
			<path d="M248,0C111.256,0,0,111.256,0,248s111.256,248,248,248s248-111.256,248-248S384.744,0,248,0z M248,480
				C120.072,480,16,375.928,16,248S120.072,16,248,16s232,104.072,232,232S375.928,480,248,480z"/>
			<path d="M136,192h-24v112h24c30.88,0,56-25.12,56-56S166.88,192,136,192z M136,288h-8v-80h8c22.056,0,40,17.944,40,40
				C176,270.056,158.056,288,136,288z"/>
			<polygon points="272,278.112 228.944,192 208,192 208,304 224,304 224,217.888 267.056,304 288,304 288,192 272,192 			"/>
			<path d="M352,240h-16c-8.824,0-16-7.176-16-16c0-8.824,7.176-16,16-16h16c8.824,0,16,7.176,16,16h16c0-17.648-14.352-32-32-32
				h-16c-17.648,0-32,14.352-32,32s14.352,32,32,32h16c8.824,0,16,7.176,16,16c0,8.824-7.176,16-16,16h-16c-8.824,0-16-7.176-16-16
				h-16c0,17.648,14.352,32,32,32h16c17.648,0,32-14.352,32-32S369.648,240,352,240z"/>
			<rect x="480" y="480" width="16" height="16"/>
			<rect x="448" y="480" width="16" height="16"/>
			<rect x="416" y="480" width="16" height="16"/>
			<rect x="480" y="448" width="16" height="16"/>
			<rect x="480" y="416" width="16" height="16"/>
			<rect x="448" y="448" width="16" height="16"/>
			<rect y="480" width="16" height="16"/>
			<rect x="32" y="480" width="16" height="16"/>
			<rect x="64" y="480" width="16" height="16"/>
			<rect y="448" width="16" height="16"/>
			<rect y="416" width="16" height="16"/>
			<rect x="32" y="448" width="16" height="16"/>
			<rect x="480" width="16" height="16"/>
			<rect x="448" width="16" height="16"/>
			<rect x="416" width="16" height="16"/>
			<rect x="480" y="32" width="16" height="16"/>
			<rect x="480" y="64" width="16" height="16"/>
			<rect x="448" y="32" width="16" height="16"/>
			<rect width="16" height="16"/>
			<rect x="32" width="16" height="16"/>
			<rect x="64" width="16" height="16"/>
			<rect y="32" width="16" height="16"/>
			<rect y="64" width="16" height="16"/>
			<rect x="32" y="32" width="16" height="16"/>
		</g>
	</g>
</g>
</svg>